<?xml version="1.0" encoding="UTF-8"?>
<!DOCTYPE svg PUBLIC "-//W3C//DTD SVG 1.1//EN" "http://www.w3.org/Graphics/SVG/1.1/DTD/svg11.dtd">
<!-- Creator: CorelDRAW 2021.5 -->
<svg xmlns="http://www.w3.org/2000/svg" xml:space="preserve" width="129.914mm" height="129.914mm" version="1.1" style="shape-rendering:geometricPrecision; text-rendering:geometricPrecision; image-rendering:optimizeQuality; fill-rule:evenodd; clip-rule:evenodd"
viewBox="0 0 4842.8 4842.8"
 xmlns:xlink="http://www.w3.org/1999/xlink"
 xmlns:xodm="http://www.corel.com/coreldraw/odm/2003">
 <defs>
  <style type="text/css">
   <![CDATA[
    .fil0 {fill:white}
   ]]>
  </style>
 </defs>
 <g id="Layer_x0020_1">
  <metadata id="CorelCorpID_0Corel-Layer"/>
  <path class="fil0" d="M4133.59 709.21c945.61,945.62 945.61,2478.76 0,3424.38 -945.62,945.61 -2478.76,945.61 -3424.38,0 -945.61,-945.62 -945.61,-2478.76 0,-3424.38 945.62,-945.61 2478.76,-945.61 3424.38,0zm-2576.04 3260.47c0,-63.68 13.67,-113.69 41.15,-150.27 27.47,-36.59 65.83,-54.95 114.95,-54.95 35.83,0 66.08,14.05 90.52,42.28l0 -203.32 125.33 0 0 569.69 -112.29 0 -6.33 -43.04c-25.7,33.8 -58.36,50.64 -97.99,50.64 -47.73,0 -85.45,-18.36 -113.43,-54.95 -27.98,-36.58 -41.9,-88.62 -41.9,-156.09zm124.95 7.72c0,71.27 20.76,106.85 62.29,106.85 27.73,0 47.48,-11.65 59.37,-34.81l0 -152.93c-11.39,-23.67 -30.89,-35.57 -58.61,-35.57 -38.61,0 -59.5,31.14 -62.67,93.43l-0.38 23.04zm339.89 -8.48c0,-40.13 7.85,-75.83 23.42,-107.1 15.57,-31.27 37.98,-55.33 67.1,-72.16 29.24,-16.84 63.42,-25.2 102.8,-25.2 60.01,0 107.36,18.61 142.04,55.83 34.56,37.22 51.9,87.86 51.9,151.92l0 4.43c0,62.54 -17.34,112.29 -52.16,149 -34.69,36.71 -81.78,55.07 -141.03,55.07 -57.22,0 -103.05,-17.09 -137.61,-51.4 -34.69,-34.18 -53.3,-80.64 -56.08,-139.26l-0.38 -21.14zm125.08 7.72c0,37.09 5.82,64.31 17.34,81.66 11.65,17.34 28.86,25.95 51.65,25.95 44.44,0 67.23,-34.31 68.24,-102.8l0 -12.53c0,-72.03 -23.04,-107.99 -69,-107.99 -41.78,0 -64.44,31.02 -67.86,93.05l-0.38 22.66zm524.98 107.61c17.47,0 31.14,-4.81 40.76,-14.31 9.62,-9.49 14.31,-22.79 14.05,-39.88l117.23 0c0,44.05 -15.7,80.13 -47.22,108.37 -31.65,28.23 -72.16,42.28 -121.91,42.28 -58.36,0 -104.32,-18.36 -137.99,-54.95 -33.55,-36.58 -50.39,-87.22 -50.39,-152.04l0 -5.19c0,-40.64 7.47,-76.34 22.41,-107.48 14.94,-31.02 36.59,-54.82 64.69,-71.53 28.23,-16.71 61.65,-25.07 100.14,-25.07 52.16,0 93.68,14.43 124.32,43.42 30.64,28.86 45.96,68.11 45.96,117.61l-117.23 0c0,-20.76 -5.06,-36.71 -15.19,-47.85 -10.13,-11.14 -23.67,-16.71 -40.77,-16.71 -32.41,0 -51.27,20.64 -56.72,61.91 -1.77,13.17 -2.66,31.14 -2.66,54.19 0,40.38 4.81,68.24 14.43,83.81 9.75,15.57 25.07,23.42 46.08,23.42zm472.56 -23.8c0,-10.64 -5.57,-19.12 -16.71,-25.57 -11.14,-6.33 -32.29,-13.04 -63.43,-20 -31.14,-6.96 -56.84,-15.95 -77.1,-27.22 -20.26,-11.27 -35.83,-24.94 -46.46,-41.02 -10.63,-16.08 -15.95,-34.56 -15.95,-55.32 0,-36.84 15.32,-67.23 45.7,-91.03 30.38,-23.92 70.26,-35.83 119.38,-35.83 52.92,0 95.46,11.9 127.61,35.83 32.16,23.93 48.24,55.45 48.24,94.45l-125.33 0c0,-32.16 -16.96,-48.24 -50.89,-48.24 -13.04,0 -24.05,3.67 -32.92,11.02 -8.99,7.34 -13.42,16.46 -13.42,27.35 0,11.14 5.45,20.26 16.33,27.09 10.89,6.96 28.23,12.66 52.16,17.22 23.8,4.43 44.82,9.75 62.79,15.95 60.39,20.76 90.52,57.98 90.52,111.66 0,36.59 -16.2,66.46 -48.74,89.38 -32.54,23.04 -74.7,34.56 -126.35,34.56 -34.31,0 -64.94,-6.2 -91.91,-18.61 -26.97,-12.28 -47.98,-29.12 -63.05,-50.38 -15.19,-21.27 -22.66,-43.68 -22.66,-67.23l116.85 0c0.5,18.61 6.58,32.16 18.48,40.64 11.9,8.48 27.09,12.79 45.7,12.79 16.96,0 29.75,-3.42 38.36,-10.38 8.48,-6.96 12.79,-15.95 12.79,-27.09zm561.9 -1530.82l-955.39 0 0 -713.52c114.15,54.77 864.66,-19.17 1011.26,16.69 82.43,20.16 173.9,100.62 173.9,176.8l0 350.71c0,39.86 -76.88,169.31 -229.78,169.31zm-1209.36 737.71l253.96 0 0 -471.65 737.71 0c61.81,0 11.6,-42.82 142.1,87.67l260.01 260.02c146.25,146.25 72.75,123.95 311.41,123.95 0,-231.58 23.76,-151.61 -160.24,-335.6 -49.65,-49.65 -131,-119.62 -166.29,-172.33 98.13,-51.93 148.16,-70.2 225.16,-173.92 158.23,-213.15 130.55,-680.5 -22.34,-839.17 -76.05,-78.92 -193.63,-172.08 -311.67,-172.08l-1269.83 0 0 1693.1zm-1862.41 -1233.54c0,65.51 245.71,492.73 300.78,618.33l274.2 536.07c21.45,42.98 16.97,42.07 41.79,79.14l471.65 0 329.09 -650.49c10.58,-18.75 12.42,-22.98 20.06,-40.41 15.11,-34.49 24.03,-43.09 41.97,-78.97l177.36 -354.75c17.21,-32.31 48.29,-54.53 48.29,-133.12l0 -435.37 -253.96 0 0 386.99c0,77.15 -271.16,547.51 -354.55,721.78l-32.16 64.59c-47.8,82.88 -88.01,180.13 -133.32,265.77l-157.22 0c-19.33,-28.86 -20.25,-28.81 -34.73,-62.02l-292.03 -578.71c-36.12,-69.23 -193.27,-352.98 -193.27,-399.32l0 -399.09 -253.96 0 0 459.56z"/>
 </g>
</svg>
