<svg width="567" height="567" xmlns="http://www.w3.org/2000/svg" xmlns:xlink="http://www.w3.org/1999/xlink" overflow="hidden"><defs><clipPath id="clip0"><rect x="99" y="62" width="567" height="567"/></clipPath></defs><g clip-path="url(#clip0)" transform="translate(-99 -62)"><path d="M283.275 366.172C260.831 375.031 240.159 386.844 221.259 401.609 208.266 412.241 199.997 428.188 199.406 445.316L189.366 532.728C187.594 545.722 193.5 558.716 204.131 565.803 214.763 572.891 225.984 578.206 237.797 582.931L243.113 582.931 243.113 559.897C234.253 556.353 225.394 551.628 217.125 546.312 213.581 543.95 211.809 539.816 212.4 535.681L223.031 447.087 223.031 445.906C223.622 435.275 228.347 425.825 236.616 419.328 252.562 405.744 275.597 393.341 307.491 381.528 325.209 392.159 352.378 398.656 382.5 398.656 412.622 398.656 439.791 392.159 457.509 381.528 489.994 393.341 512.438 405.744 528.384 419.328 536.653 425.825 541.378 435.866 541.969 445.906L552.6 535.091C553.191 539.225 551.419 543.359 547.875 545.722L547.875 545.722C539.606 551.037 531.338 555.762 521.887 559.306L521.887 582.341 527.203 582.341C539.016 578.206 550.238 572.3 560.869 565.213L560.869 565.213C571.5 557.534 577.406 545.131 575.634 532.137L565.594 445.316C565.003 428.188 556.734 412.241 543.741 401.609 524.841 386.844 504.169 374.441 481.725 366.172 481.725 336.05 482.906 253.363 482.906 219.697 482.906 210.247 481.725 200.797 479.363 191.347 471.684 162.997 452.194 139.372 426.206 125.788 423.844 124.606 420.3 124.606 418.528 126.378L413.212 130.513 407.306 122.244C405.534 119.291 402.581 117.519 399.628 116.928 393.722 115.747 388.406 115.156 382.5 115.156 358.875 115.156 335.25 124.016 317.531 139.372 295.088 159.453 282.684 187.803 283.275 217.925L283.275 366.172ZM312.806 269.9 316.941 221.469 447.469 221.469 451.603 269.9C444.516 308.291 407.897 333.688 368.916 326.6 340.566 321.284 318.122 298.841 312.806 269.9ZM336.431 368.534C342.928 363.219 347.062 354.359 347.062 345.5L347.062 344.319C369.506 353.769 395.494 353.769 417.938 344.319L417.938 345.5C417.938 354.359 422.072 362.628 428.569 368.534 413.803 373.259 397.856 375.031 382.5 375.031 367.144 375.031 351.197 373.259 336.431 368.534Z"/><path d="M510.075 447.678C510.075 439.409 503.578 432.913 495.309 432.913L495.309 432.913 270.281 432.913C262.013 432.913 255.516 439.409 255.516 447.678L255.516 447.678 255.516 594.744 210.628 594.744 210.628 602.422C210.628 610.691 217.125 617.188 225.394 617.188L540.197 617.188C548.466 617.188 554.963 610.691 554.963 602.422L554.963 594.744 510.075 594.744 510.075 447.678ZM351.787 545.131 343.519 553.4 310.444 520.325 343.519 487.25 351.787 495.519 326.981 520.325 351.787 545.131ZM374.231 557.534 363.6 552.809 391.359 486.069 401.991 490.794 374.231 557.534ZM421.481 553.991 413.212 545.722 438.019 520.916 413.212 496.109 421.481 487.841 454.556 520.916 421.481 553.991Z"/></g></svg>