<svg width="567" height="566" xmlns="http://www.w3.org/2000/svg" xmlns:xlink="http://www.w3.org/1999/xlink" overflow="hidden"><defs><clipPath id="clip0"><rect x="600" y="-78" width="567" height="566"/></clipPath></defs><g clip-path="url(#clip0)" transform="translate(-600 78)"><path d="M194.562 181.592C194.562 210.897 170.806 234.654 141.5 234.654 112.194 234.654 88.4375 210.897 88.4375 181.592 88.4375 152.286 112.194 128.529 141.5 128.529 170.806 128.529 194.562 152.286 194.562 181.592Z" transform="matrix(1.00177 0 0 1 600 -78)"/><path d="M477.562 181.592C477.562 210.897 453.806 234.654 424.5 234.654 395.194 234.654 371.438 210.897 371.438 181.592 371.438 152.286 395.194 128.529 424.5 128.529 453.806 128.529 477.562 152.286 477.562 181.592Z" transform="matrix(1.00177 0 0 1 600 -78)"/><path d="M389.125 437.471 389.125 384.408C389.125 376.154 385.588 367.9 378.512 363.183 364.363 351.392 345.496 343.138 326.629 338.421 313.658 334.883 298.329 331.346 283 331.346 268.85 331.346 253.521 333.704 239.371 338.421 220.504 343.138 202.817 352.571 187.488 363.183 180.413 369.079 176.875 376.154 176.875 384.408L176.875 437.471 389.125 437.471Z" transform="matrix(1.00177 0 0 1 600 -78)"/><path d="M336.062 264.133C336.062 293.439 312.306 317.196 283 317.196 253.694 317.196 229.938 293.439 229.938 264.133 229.938 234.828 253.694 211.071 283 211.071 312.306 211.071 336.062 234.828 336.062 264.133Z" transform="matrix(1.00177 0 0 1 600 -78)"/><path d="M520.013 280.642C505.863 268.85 486.996 260.596 468.129 255.879 455.158 252.342 439.829 248.804 424.5 248.804 410.35 248.804 395.021 251.162 380.871 255.879 373.796 258.237 366.721 260.596 359.646 264.133L359.646 265.312C359.646 285.358 351.392 304.225 338.421 317.196 360.825 324.271 378.512 333.704 392.663 344.317 396.2 347.854 399.738 350.213 402.096 354.929L530.625 354.929 530.625 301.867C530.625 293.613 527.088 285.358 520.013 280.642Z" transform="matrix(1.00177 0 0 1 600 -78)"/><path d="M173.338 344.317 173.338 344.317C189.846 332.525 208.713 323.092 227.579 317.196 214.608 303.046 206.354 285.358 206.354 265.312 206.354 264.133 206.354 264.133 206.354 262.954 199.279 260.596 192.204 257.058 185.129 255.879 172.158 252.342 156.829 248.804 141.5 248.804 127.35 248.804 112.021 251.162 97.8708 255.879 79.0042 261.775 61.3167 270.029 45.9875 280.642 38.9125 285.358 35.375 293.613 35.375 301.867L35.375 354.929 162.725 354.929C166.263 350.213 168.621 347.854 173.338 344.317Z" transform="matrix(1.00177 0 0 1 600 -78)"/></g></svg>