<svg width="567" height="567" xmlns="http://www.w3.org/2000/svg" xmlns:xlink="http://www.w3.org/1999/xlink" overflow="hidden"><defs><clipPath id="clip0"><rect x="616" y="261" width="567" height="567"/></clipPath></defs><g clip-path="url(#clip0)" transform="translate(-616 -261)"><path d="M1158.78 438.188C1155.83 431.1 1141.66 429.919 1123.94 429.919 1097.36 429.919 1056.02 437.597 1006.4 452.362 980.416 421.65 942.025 402.75 898.909 402.75 820.356 402.75 757.159 465.947 757.159 544.5 757.159 548.044 757.159 550.997 757.75 553.95 680.378 595.294 632.537 634.275 640.216 653.175 643.169 660.262 654.391 663.806 672.109 663.806 719.95 663.806 814.45 638.409 918.4 595.884 1060.74 537.412 1170.01 465.356 1158.78 438.188ZM764.838 590.569C767.2 597.066 769.562 603.562 773.106 609.469 748.3 616.556 727.037 621.281 709.319 624.825 723.494 614.784 742.394 602.972 764.838 590.569ZM1034.16 501.384C1032.39 494.888 1030.03 488.981 1027.07 483.075 1050.11 476.578 1077.28 470.672 1094.41 467.719 1080.23 477.169 1055.43 489.572 1034.16 501.384Z"/><path d="M815.041 658.491C838.666 675.619 867.606 686.25 898.909 686.25 969.784 686.25 1028.85 634.275 1038.89 565.762 1005.22 583.481 967.422 601.2 927.259 617.738 888.278 633.684 850.478 647.859 815.041 658.491Z"/></g></svg>